<svg xmlns="http://www.w3.org/2000/svg" xmlns:xlink="http://www.w3.org/1999/xlink" id="Capa_1" x="0px" y="0px" viewBox="0 0 384 384" style="enable-background:new 0 0 384 384;" xml:space="preserve"><g>	<path d="M266.2,384c-49.5,0-99,0-148.5,0c-17-4.3-22.2-16.7-21.9-30.8c0.6-24.7,0.2-49.5,0.2-74.2c0-1.4,0-2.7,0-4.1  c-1.6-0.5-2.9-0.9-4.2-1.2c-16.7-4.6-33.4-9.2-50.2-13.8c-11.2-3.1-16.1-9.6-16.1-21.2c0-34.5,0-69,0-103.5c0-1.5,0-2.9,0-4.4  c-11.2-2.7-19.2-8.6-23.4-19.1c-0.9-2.2-1.5-4.5-2.2-6.7c0-3,0-6,0-9c1.7-4.1,3-8.4,5.2-12.3c6.4-11.3,13.3-22.3,19.8-33.5  c1.8-3.1,4.2-5,7.7-6c38.7-10.9,77.4-22,116.1-33c12.9-3.7,25.8-7.5,38.7-11.3c3,0,6,0,9,0c0.3,0.2,0.6,0.5,0.9,0.6  c48.4,13.8,96.8,27.5,145.2,41.3c16.5,4.7,12,1.1,20.6,15.8c7.3,12.5,16.5,24.1,20.8,38.3c0,3,0,6,0,9c-0.2,0.7-0.6,1.4-0.7,2.1  c-2.8,11.3-9.8,18.8-20.9,22.6c-1.3,0.4-2.6,0.8-4,1.2c0,1.7,0,3.2,0,4.7c0,33.9,0,67.7,0,101.6c0,13.7-4.4,19.5-17.6,23.1  c-17.5,4.8-35.1,9.6-52.9,14.5c0,1.6,0,3.1,0,4.6c0,26.1,0,52.2,0,78.4c0,10.9-5,18.9-14.7,23.8C271.1,382.6,268.6,383.2,266.2,384  z M108.8,278.2c0,26,0,52,0,78c0,10.2,4.9,15.1,15.2,15.1c45.4,0,90.7,0,136.1,0c10.3,0,15.1-4.9,15.1-15.2c0-51.7,0-103.5,0-155.2  c0-10.4-4.8-15.3-15-15.3c-45.5,0-91,0-136.5,0c-10.1,0-14.9,4.9-14.9,15C108.8,226.4,108.8,252.3,108.8,278.2z M56.9,50.9  c0.1,0.2,0.1,0.5,0.2,0.7c44.2,12.4,88.4,24.8,132.6,37c1.9,0.5,4.2,0.2,6.1-0.3c33.9-9.4,67.8-18.9,101.6-28.4  c9.9-2.8,19.7-5.6,30.5-8.6c-1.7-0.6-2.5-0.9-3.3-1.2C282.1,38,239.6,25.7,196.9,13.8c-3.2-0.9-7-0.7-10.2,0.1  C149.1,24.4,111.6,35.2,74,45.9C68.3,47.5,62.6,49.2,56.9,50.9z M201.9,99.9c0.8,1.3,1.4,2.4,2,3.5c7.2,12,14.4,24,21.6,36  c5.4,9.1,12.4,11.9,22.5,9.1c36.3-10.2,72.6-20.3,108.8-30.5c13.4-3.8,18.1-15.6,11.1-27.5c-5.7-9.6-11.5-19-17-28.7  c-1.4-2.4-2.6-2.8-5.3-2.1c-35.4,10-70.9,19.9-106.3,29.8C226.9,92.9,214.5,96.4,201.9,99.9z M182.1,100c-1.3-0.4-2.4-0.8-3.4-1.1  c-14.8-4.2-29.5-8.3-44.3-12.5c-32-8.9-63.9-17.8-95.8-26.9c-2.6-0.7-4-0.4-5.4,2c-5.7,10-11.8,19.7-17.5,29.7  C9.4,102,14.2,114.2,26,117.6c37.1,10.5,74.2,20.8,111.4,31.2c8.4,2.3,15.7-0.7,20.3-8.1c3-4.8,5.8-9.6,8.7-14.4  C171.6,117.6,176.8,108.9,182.1,100z M345.7,134.6c-1.6,0.4-2.7,0.7-3.9,1c-30.3,8.5-60.6,16.9-90.8,25.4c-14.9,4.1-28-1.1-36-14.3  c-4.8-7.9-9.5-15.8-14.3-23.8c-0.5-0.8-1.1-1.4-1.9-2.5c0,17.8,0,34.9,0,52.4c1.8,0,3.2,0,4.7,0c19.1,0,38.2-0.1,57.4,0  c16.5,0.1,27.2,10.8,27.2,27.3c0,19,0,38,0,57c0,1.3,0,2.7,0,4.2c1.4-0.3,2.4-0.4,3.3-0.7c15.6-4.3,31.3-8.5,46.9-12.9  c6.4-1.8,7.4-3.2,7.4-9.7c0-33.1,0-66.2,0-99.4C345.7,137.4,345.7,136.2,345.7,134.6z M38.7,134.5c-0.2,0.9-0.3,1.3-0.3,1.7  c0,34.6,0,69.2,0,103.9c0,4.3,1.7,6.2,6,7.4c8.2,2.3,16.4,4.5,24.5,6.7c8.9,2.4,17.8,4.8,27.1,7.3c0-1.7,0-3.1,0-4.5  c0-18.6,0-37.2,0-55.9c0-17.9,10.4-28.4,28.4-28.4c18.9,0,37.7,0,56.6,0c1.4,0,2.9,0,4.2,0c0-17.7,0-34.8,0-52.9  c-5.7,9.6-10.9,18.3-16.1,26.9c-8,13.2-21.1,18.4-36,14.2c-21.4-6-42.8-12-64.2-18C58.9,140.1,49,137.4,38.7,134.5z"></path>	<path d="M217.5,230.3c-10.1,0-20.2,0-30.4,0c-5.1,0-7.9-2.4-7.9-6.4c0.1-4,3-6.3,8.1-6.3c20.1,0,40.2,0,60.4,0  c5.4,0,8.3,2.3,8.2,6.5c-0.1,4.1-2.7,6.2-8,6.3C237.7,230.4,227.6,230.3,217.5,230.3z"></path>	<path d="M217.9,332.9c10,0,20,0,30,0c5.3,0,8,2.1,8,6.2c0,4.2-2.8,6.5-8.2,6.5c-20.1,0-40.2,0-60.3,0c-5.1,0-8-2.4-8.1-6.4  c-0.1-4,2.8-6.4,7.9-6.4C197.4,332.8,207.6,332.9,217.9,332.9z"></path>	<path d="M217.5,294.4c10.4,0,20.7-0.1,31.1,0c4.9,0,7.6,2.8,7.3,7c-0.3,3.5-2.8,5.7-7.1,5.8c-6.2,0.1-12.5,0-18.7,0  c-13.9,0-27.7,0-41.6,0c-1.4,0-2.8,0-4.1-0.3c-3.2-0.7-5.2-3.3-5.1-6.4c0.1-3.1,2.3-5.7,5.6-5.9c4.9-0.3,9.7-0.2,14.6-0.2  C205.5,294.4,211.5,294.4,217.5,294.4z"></path>	<path d="M217.5,268.7c-10.1,0-20.2,0-30.4,0c-5.1,0-7.9-2.4-7.9-6.4c0.1-4,3-6.3,8.1-6.4c20.1,0,40.2,0,60.3,0c0.5,0,1,0,1.5,0  c4.2,0.3,6.8,2.8,6.7,6.5c0,3.8-2.6,6.2-6.9,6.2C238.5,268.8,228,268.7,217.5,268.7z"></path>	<path d="M141,221.4c4.6-4.7,8.9-9.2,13.3-13.6c3.6-3.6,7.3-3.9,10.1-0.9c2.7,2.9,2.4,6.4-1,9.9c-5.7,5.8-11.4,11.5-17.2,17.2  c-3.9,3.8-7,3.7-11-0.1c-1.5-1.5-3-3-4.5-4.5c-3.1-3.2-3.5-6.9-0.9-9.6c2.7-2.8,6.1-2.7,9.6,0.3C139.9,220.3,140.2,220.7,141,221.4  z"></path>	<path d="M141.1,336.5c4.4-4.5,8.8-9,13.1-13.4c3.5-3.5,7.3-3.9,10.1-1.1c2.9,2.9,2.5,6.5-1.1,10.1c-5.5,5.6-11.1,11.1-16.7,16.7  c-4.4,4.3-7.3,4.3-11.8-0.1c-1.4-1.4-2.9-2.8-4.2-4.2c-3-3.2-3.3-7-0.7-9.6c2.5-2.6,6-2.5,9.4,0.3  C139.8,335.5,140.2,335.8,141.1,336.5z"></path>	<path d="M141.2,259.9c4.7-4.8,9.2-9.7,13.8-14.3c2.8-2.8,6.1-3,8.8-0.9c2.9,2.3,3.5,6.4,0.8,9.3c-6.4,6.7-12.9,13.2-19.6,19.6  c-2.7,2.6-5.9,2.3-8.7-0.3c-1.9-1.8-3.8-3.7-5.6-5.5c-3.1-3.2-3.3-6.9-0.7-9.6c2.6-2.6,6.1-2.5,9.4,0.2  C139.8,258.7,140.2,259.1,141.2,259.9z"></path>	<path d="M141.1,298.2c4.5-4.6,8.9-9.1,13.3-13.5c3.5-3.5,7.4-3.8,10.2-1c2.8,2.9,2.4,6.5-1.2,10.2c-5.6,5.7-11.3,11.3-16.9,16.9  c-3.9,3.9-7,3.8-11,0c-1.6-1.6-3.2-3.1-4.8-4.8c-2.9-3.1-3.2-6.7-0.8-9.3c2.5-2.8,6.2-2.7,9.6,0.1  C139.8,297.1,140.2,297.4,141.1,298.2z"></path></g></svg>