<svg xmlns="http://www.w3.org/2000/svg" viewBox="0 0 24 24" width="24" height="24" fill="currentColor">
  <path d="M6.5,5.3c0.8,0,1.5,0.1,2.2,0.1c0.7,0,1.2,0.4,1.4,1c0.2,0.9-0.4,1.8-1.3,1.7c-1,0-2-0.1-3-0.1
    C5.1,8,4.4,8,3.7,8C2.6,7.9,2.1,7.3,2.2,6.3C2.2,4.6,2.3,3,2.4,1.4C2.4,0.6,3.1,0,3.8,0c0.8,0,1.4,0.7,1.3,1.5
    c0,0.5,0,1-0.1,1.5c0.1,0,0.2-0.1,0.2-0.1C7.3,1.6,9.4,1,11.8,1c4.5,0.1,8.7,3,10.4,7.2c2.5,6.5-1.1,13.6-7.8,15.4
    C9.1,25,3.6,22.4,1.2,17.6c-0.4-0.7-0.1-1.5,0.6-1.9c0.7-0.4,1.5-0.1,1.9,0.7c1.2,2.4,3.1,4,5.8,4.6c4.9,1.2,9.9-2.1,10.7-7
    c0.8-4.9-2.5-9.4-7.4-10.1c-2.2-0.3-4.2,0.1-6,1.3C6.7,5.2,6.6,5.3,6.5,5.3z"/>
  <path d="M12 8v5l4 2" stroke="currentColor" stroke-width="2" fill="none" stroke-linecap="round" stroke-linejoin="round"/>
</svg>