<?xml version="1.0" encoding="utf-8"?>
<!-- Generator: Adobe Illustrator 25.2.1, SVG Export Plug-In . SVG Version: 6.00 Build 0)  -->
<svg version="1.1" id="Layer_1" xmlns="http://www.w3.org/2000/svg" xmlns:xlink="http://www.w3.org/1999/xlink" x="0px" y="0px"
	 viewBox="0 0 286.3 312.8" style="enable-background:new 0 0 286.3 312.8;" xml:space="preserve">
<g>
	<path d="M212.2,68c-24-15.6-50.3-21.8-78.5-17.5C69.5,60.1,27.2,118.3,37.5,182c10.5,64.6,75.6,107.6,139.2,91.5
		c34.3-8.6,59.2-29.2,75.3-60.6c5-9.7,15.4-13.3,24.6-8.6c9,4.6,12.2,15.1,7.5,24.7c-31,63.6-103.7,97-172.1,79
		C24.6,285-22.5,192,10.5,107.6c21.7-55.4,76.4-93.3,135.7-94.3c30.4-0.5,58.4,7.4,84.1,23.6c0.7,0.5,1.6,0.8,2.8,1.4
		c-0.3-6.8-0.8-13-0.9-19.2C232,8.5,239.5,0.3,249.6,0c10-0.3,18,7.6,18.5,18.1c1.1,21.2,2.1,42.4,3.1,63.5
		c0.8,14.2-5.7,21.4-19.9,22.2c-9,0.5-17.9,1-26.9,1.4c-12.8,0.6-25.7,1.5-38.5,1.8c-12,0.2-20.5-11.2-17.3-22.8
		c2.1-7.7,8.8-12.7,17.6-13.1c9.1-0.4,18.1-0.9,28.1-1.4C213.1,68.7,212.6,68.3,212.2,68z"/>
</g>
</svg>
