<?xml version="1.0" encoding="utf-8"?>
<!-- Generator: Adobe Illustrator 25.2.1, SVG Export Plug-In . SVG Version: 6.00 Build 0)  -->
<svg version="1.1" id="Layer_1" xmlns="http://www.w3.org/2000/svg" xmlns:xlink="http://www.w3.org/1999/xlink" x="0px" y="0px"
	 viewBox="0 0 286.3 312.8" style="enable-background:new 0 0 286.3 312.8;" xml:space="preserve">
<g>
	<path d="M71.9,69.7c10,0.5,19,1,28.1,1.4c8.8,0.4,15.5,5.4,17.6,13.1c3.2,11.6-5.3,23-17.3,22.8c-12.8-0.3-25.7-1.2-38.5-1.8
		c-9-0.4-17.9-0.9-26.9-1.4c-14.2-0.8-20.7-8-19.9-22.2C16,60.5,17,39.3,18.1,18.1C18.6,7.6,26.6-0.3,36.6,0
		C46.7,0.3,54.2,8.5,54,19.1c-0.1,6.2-0.6,12.4-0.9,19.2c1.2-0.6,2.1-0.9,2.8-1.4c25.7-16.2,53.7-24.1,84.1-23.6
		c59.3,1,114,38.9,135.7,94.3C308.7,192,261.6,285,174.2,308c-68.4,18-141.1-15.4-172.1-79c-4.7-9.6-1.5-20.1,7.5-24.7
		c9.2-4.7,19.6-1.1,24.6,8.6c16.1,31.4,41,52,75.3,60.6c63.6,16.1,128.7-26.9,139.2-91.5c10.3-63.7-32-121.9-96.2-131.5
		C124.3,46.2,98,52.4,74,68C73.6,68.3,73.1,68.7,71.9,69.7z"/>
</g>
</svg>
